# xmcd CD database file
#
# Track frame offsets:
#	150
#	23479
#	50024
#	75878
#	96338
#	126018
#	147233
#	188176
#
# Disc length: 2745 seconds
#
# Revision: 0
# Processed by: cddbd v1.5.1PL0 Copyright (c) Steve Scherf et al.
# Submitted via: CDex 1.51
#
DISCID=5f0ab708
DTITLE=Thomas Stabenow - Straight Four II
DYEAR=2000
DGENRE=Jazz
TTITLE0=such sweet thunder (ellington)
TTITLE1=thinging (konitz)
TTITLE2=moonlight in vermont (suessdorf)
TTITLE3=like someone in love (van heusen)
TTITLE4=body and soul (green)
TTITLE5=black betty (ledbetter)
TTITLE6=alone together (schwartz)
TTITLE7=pas d'ondulation (konitz-enders-stabenow-willis)
EXTD=YEAR: 2000
EXTT0=
EXTT1=
EXTT2=
EXTT3=
EXTT4=
EXTT5=
EXTT6=
EXTT7=
PLAYORDER=
